<?xml version="1.0" encoding="utf-8"?>
<!-- Generator: Adobe Illustrator 16.0.0, SVG Export Plug-In . SVG Version: 6.00 Build 0)  -->
<!DOCTYPE svg PUBLIC "-//W3C//DTD SVG 1.1//EN" "http://www.w3.org/Graphics/SVG/1.1/DTD/svg11.dtd">
<svg version="1.1" id="Layer_1" xmlns="http://www.w3.org/2000/svg" xmlns:xlink="http://www.w3.org/1999/xlink" x="0px" y="0px"
	 width="194.917px" height="194.916px" viewBox="0 0 194.917 194.916" enable-background="new 0 0 194.917 194.916"
	 xml:space="preserve">
<g>
	<path fill="#A7A9AC" d="M52.366,116c-3.881,3.531-7.792,6.985-11.728,10.492l-18.574-8.271l78.169-70.255l0.195,105.149
		l-18.627-8.294c0.003-5.194,0.031-10.441,0.035-15.635l-29.387-13.086L52.366,116z M81.563,110.784l0.383-21.316l-15.639,14.523
		L81.563,110.784z"/>
	<path fill="#FFFFFF" d="M106.948,114.095V81.048V48.001h18.926h14.121c9.082,0,16.875,3.223,23.379,9.727
		s9.727,14.297,9.727,23.379s-3.223,16.875-9.727,23.32c-6.504,6.445-14.297,9.668-23.379,9.668h-14.121v31.822l-18.926,7.198
		V114.095z M139.995,95.287c3.926,0,7.266-1.406,10.02-4.16s4.16-6.094,4.16-10.02c0-3.867-1.406-7.207-4.16-10.02
		s-6.094-4.219-10.02-4.219h-14.121v14.18v14.18L139.995,95.287z"/>
</g>
<rect x="3.587" y="3.669" fill="none" stroke="#A71E22" stroke-width="7" stroke-miterlimit="10" width="187.796" height="187.797"/>
</svg>
