<?xml version="1.0" encoding="utf-8"?>
<!-- Generator: Adobe Illustrator 16.0.0, SVG Export Plug-In . SVG Version: 6.00 Build 0)  -->
<!DOCTYPE svg PUBLIC "-//W3C//DTD SVG 1.1//EN" "http://www.w3.org/Graphics/SVG/1.1/DTD/svg11.dtd">
<svg version="1.1" id="Layer_1" xmlns="http://www.w3.org/2000/svg" xmlns:xlink="http://www.w3.org/1999/xlink" x="0px" y="0px"
	 width="476px" height="65px" viewBox="0 0 476 65" enable-background="new 0 0 476 65" xml:space="preserve">
<g>
	<path fill="#FFFFFF" d="M245.424,18.771l-1.436,3.172h-0.766h-0.178h-2.871h-0.943l9.994-22.395l10.021,22.395h-0.943h-2.871
		h-0.191h-0.766l-1.422-3.186l-0.068-0.15h-7.506L245.424,18.771z M251.18,14.711l-1.941-4.58l-1.955,4.58H251.18z"/>
	<path fill="#FFFFFF" d="M274.121,12.141V-0.041h4.416v22.449L265.316,9.803v12.195H260.9V-0.451L274.121,12.141z"/>
	<path fill="#FFFFFF" d="M286.152,0c3.021,0,5.879,1.08,8.039,3.24c3.938,3.938,3.938,11.607,0,15.531
		c-2.16,2.146-5.018,3.227-8.039,3.227h-5.441V0.014h5.441V0z M286.18,17.582c1.805,0,3.473-0.506,4.758-1.791
		s1.791-2.98,1.791-4.799c0-1.805-0.506-3.5-1.805-4.799c-1.285-1.299-2.98-1.805-4.785-1.805h-1.012v13.193h1.039H286.18z"/>
	<path fill="#FFFFFF" d="M298.771-0.068h7.164c2.119,0,4.211,0.738,5.729,2.256s2.133,2.939,2.133,5.059V7.93
		c0,1.641-0.465,2.844-1.395,4.156s-1.709,1.695-3.158,2.242l4.977,7.67h-5.387l-5.633-8.613v8.613h-4.416L298.771-0.068z
		 M306.346,10.555c0.916,0,1.381-0.232,2.023-0.875s0.875-1.381,0.875-2.297c0-0.902-0.232-1.504-0.875-2.16
		s-1.791-0.889-2.707-0.889h-2.475v6.207L306.346,10.555z"/>
	<path fill="#FFFFFF" d="M329.492-0.041v4.402h-8.805v4.416h6.604v4.402h-6.604v4.402h8.805v4.416h-8.805h-4.416V-0.041H329.492z"/>
	<path fill="#FFFFFF" d="M335.74-0.041l4.061,10.391l4.061-10.391l4.061,10.391l4.047-10.391h4.758l-8.805,22.449l-4.102-10.924
		l-4.02,10.924l-8.805-22.449H335.74z"/>
	<path fill="#FFFFFF" d="M366.57,15.381V7.67v-7.711h4.416h3.295c2.119,0,3.938,0.752,5.455,2.27s2.27,3.336,2.27,5.455
		s-0.752,3.938-2.27,5.441s-3.336,2.256-5.455,2.256h-3.295v6.617h-4.416V15.381z M374.281,10.992c0.916,0,1.695-0.328,2.338-0.971
		s0.971-1.422,0.971-2.338c0-0.902-0.328-1.682-0.971-2.338s-1.422-0.984-2.338-0.984h-3.295V7.67v3.309L374.281,10.992z"/>
	<path fill="#FFFFFF" d="M388.336-0.041v8.818h6.604v-8.818h4.416v22.039h-4.416V13.18h-6.604v8.818h-4.416V-0.041H388.336z"/>
	<path fill="#FFFFFF" d="M401.543-0.041h4.416v22.039h-4.416V-0.041z"/>
	<path fill="#FFFFFF" d="M412.562-0.041v17.623h8.805v4.416h-13.221V-0.041H412.562z"/>
	<path fill="#FFFFFF" d="M427.424-0.041v17.623h8.805v4.416h-13.221V-0.041H427.424z"/>
	<path fill="#FFFFFF" d="M437.869-0.041h4.416v22.039h-4.416V-0.041z"/>
	<path fill="#FFFFFF" d="M444.473,15.381V7.67v-7.711h4.416h3.295c2.119,0,3.938,0.752,5.455,2.27s2.27,3.336,2.27,5.455
		s-0.752,3.938-2.27,5.441s-3.336,2.256-5.455,2.256h-3.295v6.617h-4.416V15.381z M452.184,10.992c0.916,0,1.695-0.328,2.338-0.971
		s0.971-1.422,0.971-2.338c0-0.902-0.328-1.682-0.971-2.338s-1.422-0.984-2.338-0.984h-3.295V7.67v3.309L452.184,10.992z"/>
	<path fill="#FFFFFF" d="M468.357,17.623c1.217,0,2.229-1.012,2.229-2.229c0-0.943-0.369-1.545-1.121-1.818
		c-1.586-0.588-1.203-0.451-2.748-0.984c-1.627-0.561-3.131-1.668-4.143-3.049c-0.602-0.82-0.902-1.832-0.902-3.049
		c0-1.832,0.656-3.404,1.969-4.717s2.885-1.969,4.73-1.969c1.832,0,3.404,0.656,4.717,1.969s1.969,2.885,1.969,4.717h-4.443
		c0-1.203-1.012-2.215-2.215-2.215c-1.217,0-2.229,1.012-2.229,2.229c0,0.793,0.314,1.395,0.957,1.805
		c1.312,0.848,1.162,0.684,2.734,1.148c1.695,0.492,3.227,1.545,4.279,2.898c0.615,0.793,0.93,1.818,0.93,3.062
		c0,1.846-0.656,3.418-1.969,4.73s-2.885,1.969-4.717,1.969c-1.846,0-3.418-0.656-4.73-1.969s-1.969-2.885-1.969-4.73h4.457
		c0,1.23,0.998,2.229,2.229,2.229L468.357,17.623z"/>
	<path fill="#939598" d="M26.184,35.606l6.637,17.528l6.889-17.528h2.799v19.992h-1.903V38.322h-0.056l-6.832,17.276h-1.793
		l-6.58-17.276h-0.056v17.276h-1.903V35.606H26.184z"/>
	<path fill="#939598" d="M58.972,55.598v-2.604h-0.056c-0.467,0.971-1.144,1.713-2.03,2.226s-1.872,0.77-2.954,0.77
		c-0.914,0-1.693-0.126-2.338-0.378s-1.166-0.611-1.568-1.078c-0.4-0.466-0.695-1.036-0.881-1.708
		c-0.188-0.672-0.281-1.437-0.281-2.296v-9.38h1.765v9.408c0.037,1.307,0.341,2.296,0.91,2.968c0.569,0.672,1.554,1.008,2.954,1.008
		c0.766,0,1.418-0.163,1.96-0.49c0.541-0.326,0.989-0.76,1.344-1.302c0.354-0.541,0.616-1.162,0.784-1.862
		c0.168-0.7,0.252-1.414,0.252-2.142V41.15h1.764v14.448H58.972z"/>
	<path fill="#939598" d="M68.52,35.606v19.992h-1.764V35.606H68.52z"/>
	<path fill="#939598" d="M80.447,41.15v1.484h-2.939v9.744c0,0.579,0.079,1.032,0.238,1.358c0.158,0.327,0.555,0.509,1.189,0.546
		c0.504,0,1.008-0.028,1.512-0.084v1.484c-0.262,0-0.522,0.009-0.783,0.028c-0.262,0.019-0.523,0.028-0.784,0.028
		c-1.177,0-1.997-0.229-2.464-0.686s-0.691-1.302-0.672-2.534v-9.884h-2.521V41.15h2.521v-4.34h1.764v4.34H80.447z"/>
	<path fill="#939598" d="M87.588,35.606v2.828h-1.764v-2.828H87.588z M87.588,41.15v14.448h-1.764V41.15H87.588z"/>
	<path fill="#939598" d="M95.4,41.15v2.436h0.084c0.466-0.896,1.077-1.596,1.834-2.1c0.756-0.504,1.721-0.756,2.897-0.756
		c0.952,0,1.815,0.234,2.59,0.7c0.774,0.467,1.292,1.176,1.554,2.128c0.43-0.952,1.064-1.661,1.904-2.128
		c0.84-0.466,1.736-0.7,2.688-0.7c3.192,0,4.789,1.69,4.789,5.068v9.8h-1.765v-9.716c0-1.194-0.252-2.104-0.756-2.73
		s-1.391-0.938-2.66-0.938c-0.766,0-1.399,0.145-1.903,0.434c-0.504,0.29-0.906,0.677-1.205,1.162
		c-0.299,0.486-0.508,1.041-0.629,1.666c-0.122,0.625-0.183,1.274-0.183,1.946v8.176h-1.765v-9.8c0-0.485-0.051-0.947-0.153-1.386
		c-0.103-0.438-0.271-0.821-0.504-1.148c-0.233-0.326-0.546-0.583-0.938-0.77c-0.392-0.187-0.867-0.28-1.428-0.28
		c-0.746,0-1.396,0.135-1.945,0.406c-0.551,0.271-1,0.644-1.345,1.12s-0.603,1.036-0.771,1.68c-0.168,0.644-0.252,1.349-0.252,2.114
		v8.064h-1.764V41.15H95.4z"/>
	<path fill="#939598" d="M121.201,50.824c0.178,0.682,0.462,1.293,0.854,1.834c0.393,0.542,0.887,0.99,1.484,1.344
		c0.598,0.355,1.316,0.532,2.156,0.532c1.288,0,2.296-0.336,3.023-1.008c0.729-0.672,1.232-1.568,1.513-2.688h1.764
		c-0.374,1.643-1.06,2.912-2.058,3.808c-0.999,0.896-2.413,1.344-4.242,1.344c-1.139,0-2.123-0.201-2.954-0.602
		s-1.508-0.952-2.03-1.652c-0.522-0.7-0.91-1.512-1.162-2.436c-0.252-0.924-0.377-1.899-0.377-2.926c0-0.952,0.125-1.885,0.377-2.8
		s0.64-1.731,1.162-2.45c0.522-0.718,1.199-1.297,2.03-1.736c0.831-0.438,1.815-0.658,2.954-0.658c1.157,0,2.146,0.234,2.968,0.7
		c0.821,0.467,1.489,1.078,2.002,1.834s0.882,1.624,1.106,2.604c0.224,0.98,0.316,1.974,0.279,2.982h-11.115
		C120.936,49.485,121.023,50.143,121.201,50.824z M129.938,45.434c-0.215-0.616-0.518-1.162-0.91-1.638
		c-0.393-0.476-0.868-0.858-1.428-1.148c-0.561-0.289-1.195-0.434-1.904-0.434c-0.729,0-1.372,0.145-1.932,0.434
		c-0.561,0.29-1.037,0.672-1.428,1.148c-0.393,0.476-0.705,1.026-0.938,1.652s-0.388,1.265-0.462,1.918h9.352
		C130.269,46.694,130.152,46.05,129.938,45.434z"/>
	<path fill="#939598" d="M148.319,55.598v-2.744h-0.056c-0.188,0.467-0.463,0.896-0.826,1.288c-0.364,0.392-0.779,0.724-1.246,0.994
		s-0.967,0.48-1.498,0.63c-0.532,0.149-1.06,0.224-1.582,0.224c-1.102,0-2.059-0.201-2.87-0.602s-1.489-0.952-2.03-1.652
		c-0.541-0.7-0.942-1.512-1.203-2.436c-0.262-0.924-0.393-1.899-0.393-2.926c0-1.026,0.131-2.002,0.393-2.926
		c0.261-0.924,0.662-1.736,1.203-2.436c0.541-0.7,1.219-1.255,2.03-1.666s1.769-0.616,2.87-0.616c0.541,0,1.068,0.066,1.582,0.196
		c0.514,0.131,0.994,0.332,1.441,0.602c0.449,0.271,0.845,0.602,1.19,0.994c0.345,0.392,0.611,0.85,0.798,1.372h0.057v-8.288h1.764
		v19.992H148.319z M138.646,50.6c0.177,0.738,0.457,1.396,0.84,1.974c0.382,0.579,0.872,1.05,1.47,1.414
		c0.598,0.364,1.316,0.546,2.156,0.546c0.934,0,1.723-0.182,2.365-0.546c0.645-0.364,1.167-0.835,1.568-1.414
		s0.691-1.236,0.868-1.974c0.177-0.737,0.267-1.479,0.267-2.226c0-0.746-0.09-1.488-0.267-2.226
		c-0.177-0.737-0.467-1.395-0.868-1.974s-0.924-1.05-1.568-1.414c-0.643-0.364-1.432-0.546-2.365-0.546
		c-0.84,0-1.559,0.182-2.156,0.546c-0.598,0.364-1.088,0.835-1.47,1.414c-0.383,0.579-0.663,1.237-0.84,1.974
		c-0.178,0.738-0.267,1.48-0.267,2.226C138.379,49.121,138.468,49.863,138.646,50.6z"/>
	<path fill="#939598" d="M157.895,35.606v2.828h-1.764v-2.828H157.895z M157.895,41.15v14.448h-1.764V41.15H157.895z"/>
	<path fill="#939598" d="M164.447,43.39c0.299-0.616,0.705-1.12,1.219-1.512c0.513-0.392,1.114-0.681,1.805-0.868
		c0.691-0.187,1.457-0.28,2.297-0.28c0.635,0,1.27,0.061,1.904,0.182c0.634,0.122,1.203,0.35,1.707,0.686s0.914,0.808,1.232,1.414
		c0.317,0.607,0.477,1.396,0.477,2.366v7.672c0,0.709,0.345,1.064,1.035,1.064c0.205,0,0.393-0.037,0.561-0.112v1.484
		c-0.206,0.038-0.388,0.065-0.547,0.084c-0.158,0.019-0.359,0.028-0.602,0.028c-0.447,0-0.808-0.061-1.078-0.182
		c-0.271-0.121-0.48-0.294-0.63-0.518c-0.149-0.224-0.247-0.49-0.294-0.798s-0.07-0.648-0.07-1.022h-0.056
		c-0.317,0.467-0.64,0.882-0.966,1.246c-0.326,0.364-0.691,0.667-1.092,0.91c-0.402,0.243-0.859,0.429-1.372,0.56
		c-0.514,0.13-1.125,0.196-1.834,0.196c-0.673,0-1.302-0.08-1.89-0.238c-0.588-0.158-1.102-0.41-1.541-0.756
		c-0.438-0.345-0.783-0.784-1.035-1.316c-0.252-0.532-0.379-1.162-0.379-1.89c0-1.008,0.225-1.796,0.672-2.366
		c0.449-0.569,1.041-1.003,1.779-1.302c0.736-0.298,1.567-0.508,2.491-0.63c0.925-0.121,1.862-0.238,2.813-0.35
		c0.374-0.037,0.701-0.084,0.98-0.14c0.28-0.056,0.514-0.154,0.7-0.294c0.187-0.14,0.331-0.331,0.435-0.574
		c0.102-0.243,0.153-0.56,0.153-0.952c0-0.597-0.099-1.087-0.294-1.47c-0.195-0.382-0.467-0.686-0.812-0.91
		s-0.746-0.378-1.203-0.462c-0.458-0.084-0.947-0.126-1.471-0.126c-1.119,0-2.035,0.266-2.744,0.798
		c-0.709,0.532-1.082,1.386-1.119,2.562h-1.764C163.971,44.734,164.148,44.006,164.447,43.39z M173.268,47.702
		c-0.112,0.206-0.327,0.355-0.645,0.448c-0.317,0.094-0.598,0.159-0.84,0.196c-0.746,0.131-1.517,0.248-2.311,0.35
		c-0.793,0.103-1.516,0.257-2.17,0.462c-0.652,0.206-1.189,0.5-1.609,0.882c-0.42,0.383-0.63,0.929-0.63,1.638
		c0,0.448,0.089,0.845,0.266,1.19c0.177,0.346,0.415,0.644,0.714,0.896s0.645,0.444,1.036,0.574s0.794,0.196,1.204,0.196
		c0.672,0,1.316-0.103,1.932-0.308c0.617-0.205,1.152-0.504,1.61-0.896s0.821-0.868,1.093-1.428c0.27-0.56,0.405-1.194,0.405-1.904
		v-2.296H173.268z"/>
	<path fill="#939598" d="M199.251,35.606c3.042,0.075,5.334,0.929,6.874,2.562c1.54,1.634,2.311,4.112,2.311,7.434
		c0,3.323-0.771,5.801-2.311,7.434c-1.54,1.634-3.832,2.488-6.874,2.562h-6.916V35.606H199.251z M198.299,53.974
		c1.438,0,2.674-0.154,3.71-0.462s1.89-0.798,2.562-1.47c0.672-0.672,1.167-1.54,1.484-2.604s0.477-2.342,0.477-3.836
		c0-1.493-0.159-2.772-0.477-3.836s-0.812-1.932-1.484-2.604s-1.525-1.162-2.562-1.47c-1.036-0.308-2.272-0.462-3.71-0.462h-4.061
		v16.744H198.299z"/>
	<path fill="#939598" d="M215.281,50.824c0.178,0.682,0.462,1.293,0.854,1.834c0.393,0.542,0.887,0.99,1.484,1.344
		c0.598,0.355,1.316,0.532,2.156,0.532c1.288,0,2.296-0.336,3.023-1.008c0.729-0.672,1.232-1.568,1.513-2.688h1.764
		c-0.374,1.643-1.06,2.912-2.058,3.808c-0.999,0.896-2.413,1.344-4.242,1.344c-1.139,0-2.123-0.201-2.954-0.602
		s-1.508-0.952-2.03-1.652c-0.522-0.7-0.91-1.512-1.162-2.436c-0.252-0.924-0.377-1.899-0.377-2.926c0-0.952,0.125-1.885,0.377-2.8
		s0.64-1.731,1.162-2.45c0.522-0.718,1.199-1.297,2.03-1.736c0.831-0.438,1.815-0.658,2.954-0.658c1.157,0,2.146,0.234,2.968,0.7
		c0.821,0.467,1.489,1.078,2.002,1.834s0.882,1.624,1.106,2.604c0.224,0.98,0.316,1.974,0.279,2.982h-11.115
		C215.016,49.485,215.104,50.143,215.281,50.824z M224.018,45.434c-0.215-0.616-0.518-1.162-0.91-1.638
		c-0.393-0.476-0.868-0.858-1.428-1.148c-0.561-0.289-1.195-0.434-1.904-0.434c-0.729,0-1.372,0.145-1.932,0.434
		c-0.561,0.29-1.037,0.672-1.428,1.148c-0.393,0.476-0.705,1.026-0.938,1.652s-0.388,1.265-0.462,1.918h9.352
		C224.349,46.694,224.232,46.05,224.018,45.434z"/>
	<path fill="#939598" d="M239.627,43.964c-0.205-0.401-0.48-0.732-0.826-0.994c-0.346-0.261-0.742-0.453-1.189-0.574
		c-0.448-0.121-0.924-0.182-1.429-0.182c-0.392,0-0.788,0.042-1.19,0.126c-0.4,0.084-0.77,0.224-1.105,0.42
		c-0.336,0.196-0.606,0.453-0.812,0.77c-0.205,0.317-0.307,0.709-0.307,1.176c0,0.392,0.098,0.724,0.293,0.994
		c0.196,0.271,0.443,0.5,0.742,0.686s0.625,0.341,0.98,0.462c0.354,0.122,0.681,0.22,0.979,0.294l2.353,0.532
		c0.504,0.075,1.003,0.21,1.498,0.406c0.494,0.196,0.933,0.453,1.315,0.77c0.382,0.318,0.695,0.709,0.938,1.176
		c0.242,0.467,0.363,1.018,0.363,1.652c0,0.784-0.178,1.452-0.531,2.002c-0.355,0.551-0.809,0.999-1.358,1.344
		c-0.551,0.346-1.171,0.593-1.862,0.742c-0.69,0.149-1.371,0.224-2.043,0.224c-1.699,0-3.076-0.401-4.131-1.204
		c-1.055-0.802-1.656-2.09-1.806-3.864h1.764c0.075,1.195,0.509,2.095,1.302,2.702c0.793,0.607,1.778,0.91,2.955,0.91
		c0.429,0,0.871-0.046,1.329-0.14c0.458-0.093,0.882-0.252,1.274-0.476c0.392-0.224,0.714-0.508,0.966-0.854
		c0.252-0.345,0.378-0.77,0.378-1.274c0-0.429-0.089-0.788-0.266-1.078c-0.178-0.289-0.416-0.532-0.715-0.728
		c-0.299-0.196-0.639-0.359-1.021-0.49c-0.383-0.13-0.77-0.242-1.162-0.336l-2.268-0.504c-0.579-0.149-1.111-0.322-1.596-0.518
		c-0.486-0.196-0.91-0.438-1.274-0.728c-0.364-0.289-0.649-0.644-0.854-1.064s-0.308-0.938-0.308-1.554
		c0-0.728,0.163-1.353,0.489-1.876c0.327-0.522,0.752-0.942,1.275-1.26c0.521-0.317,1.105-0.55,1.75-0.7
		c0.643-0.149,1.282-0.224,1.918-0.224c0.728,0,1.404,0.094,2.029,0.28s1.176,0.476,1.652,0.868
		c0.476,0.392,0.854,0.878,1.134,1.456c0.28,0.579,0.438,1.26,0.476,2.044h-1.764C239.943,44.837,239.832,44.366,239.627,43.964z"/>
	<path fill="#939598" d="M249.371,35.606v2.828h-1.764v-2.828H249.371z M249.371,41.15v14.448h-1.764V41.15H249.371z"/>
	<path fill="#939598" d="M267.417,57.306c-0.233,0.858-0.603,1.586-1.106,2.184c-0.504,0.597-1.162,1.054-1.974,1.372
		c-0.812,0.317-1.806,0.476-2.981,0.476c-0.729,0-1.438-0.084-2.129-0.252c-0.69-0.168-1.312-0.429-1.861-0.784
		c-0.551-0.355-1.008-0.808-1.373-1.358c-0.363-0.551-0.573-1.209-0.629-1.974h1.764c0.094,0.541,0.275,0.994,0.546,1.358
		c0.271,0.364,0.597,0.658,0.979,0.882c0.383,0.224,0.808,0.387,1.274,0.49c0.466,0.103,0.942,0.154,1.429,0.154
		c1.642,0,2.828-0.467,3.556-1.4c0.728-0.934,1.092-2.277,1.092-4.032v-1.96h-0.056c-0.411,0.896-1.014,1.615-1.807,2.156
		c-0.793,0.542-1.722,0.812-2.785,0.812c-1.158,0-2.147-0.191-2.969-0.574c-0.821-0.382-1.498-0.91-2.029-1.582
		c-0.533-0.672-0.92-1.46-1.162-2.366c-0.243-0.905-0.364-1.871-0.364-2.898c0-0.989,0.144-1.927,0.435-2.814
		c0.289-0.887,0.709-1.661,1.26-2.324c0.55-0.662,1.231-1.185,2.043-1.568c0.812-0.382,1.74-0.574,2.787-0.574
		c0.541,0,1.049,0.075,1.525,0.224c0.477,0.15,0.91,0.36,1.303,0.63c0.391,0.271,0.741,0.584,1.049,0.938
		c0.309,0.355,0.547,0.728,0.715,1.12h0.056V41.15h1.765v13.272C267.768,55.486,267.65,56.447,267.417,57.306z M263.371,53.456
		c0.578-0.326,1.064-0.756,1.456-1.288c0.392-0.532,0.686-1.143,0.882-1.834c0.195-0.69,0.294-1.4,0.294-2.128
		c0-0.709-0.084-1.418-0.252-2.128c-0.168-0.709-0.438-1.353-0.812-1.932c-0.374-0.578-0.854-1.045-1.442-1.4
		c-0.589-0.354-1.302-0.532-2.142-0.532s-1.56,0.172-2.156,0.518c-0.598,0.346-1.092,0.798-1.484,1.358
		c-0.393,0.56-0.677,1.199-0.854,1.918c-0.178,0.719-0.267,1.452-0.267,2.198c0,0.728,0.093,1.438,0.28,2.128
		c0.187,0.691,0.477,1.302,0.867,1.834c0.393,0.532,0.887,0.962,1.484,1.288c0.598,0.327,1.307,0.49,2.129,0.49
		C262.12,53.946,262.792,53.783,263.371,53.456z"/>
	<path fill="#939598" d="M275.662,41.15v2.492h0.057c0.336-0.877,0.934-1.582,1.792-2.114c0.858-0.532,1.802-0.798,2.827-0.798
		c1.009,0,1.854,0.131,2.535,0.392c0.681,0.262,1.227,0.63,1.638,1.106c0.41,0.476,0.7,1.06,0.868,1.75
		c0.168,0.691,0.252,1.466,0.252,2.324v9.296h-1.764v-9.016c0-0.616-0.057-1.19-0.168-1.722c-0.113-0.532-0.309-0.994-0.589-1.386
		s-0.657-0.7-1.134-0.924c-0.477-0.224-1.068-0.336-1.777-0.336c-0.711,0-1.34,0.126-1.891,0.378s-1.018,0.598-1.4,1.036
		c-0.383,0.439-0.682,0.962-0.896,1.568c-0.215,0.606-0.331,1.265-0.351,1.974v8.428h-1.764V41.15H275.662z"/>
	<path fill="#939598" d="M293.064,50.824c0.178,0.682,0.462,1.293,0.854,1.834c0.393,0.542,0.887,0.99,1.484,1.344
		c0.598,0.355,1.316,0.532,2.156,0.532c1.288,0,2.296-0.336,3.023-1.008c0.729-0.672,1.232-1.568,1.513-2.688h1.764
		c-0.374,1.643-1.06,2.912-2.058,3.808c-0.999,0.896-2.413,1.344-4.242,1.344c-1.139,0-2.123-0.201-2.954-0.602
		s-1.508-0.952-2.03-1.652c-0.522-0.7-0.91-1.512-1.162-2.436c-0.252-0.924-0.377-1.899-0.377-2.926c0-0.952,0.125-1.885,0.377-2.8
		s0.64-1.731,1.162-2.45c0.522-0.718,1.199-1.297,2.03-1.736c0.831-0.438,1.815-0.658,2.954-0.658c1.157,0,2.146,0.234,2.968,0.7
		c0.821,0.467,1.489,1.078,2.002,1.834s0.882,1.624,1.106,2.604c0.224,0.98,0.316,1.974,0.279,2.982h-11.115
		C292.799,49.485,292.887,50.143,293.064,50.824z M301.801,45.434c-0.215-0.616-0.518-1.162-0.91-1.638
		c-0.393-0.476-0.868-0.858-1.428-1.148c-0.561-0.289-1.195-0.434-1.904-0.434c-0.729,0-1.372,0.145-1.932,0.434
		c-0.561,0.29-1.037,0.672-1.428,1.148c-0.393,0.476-0.705,1.026-0.938,1.652s-0.388,1.265-0.462,1.918h9.352
		C302.132,46.694,302.016,46.05,301.801,45.434z"/>
	<path fill="#939598" d="M310.719,41.15v3.388h0.055c0.449-1.176,1.145-2.081,2.086-2.716c0.943-0.634,2.068-0.924,3.375-0.868
		v1.764c-0.803-0.037-1.531,0.07-2.184,0.322c-0.654,0.252-1.219,0.612-1.695,1.078c-0.476,0.467-0.844,1.022-1.105,1.666
		s-0.393,1.349-0.393,2.114v7.7h-1.764V41.15H310.719z"/>
	<path fill="#A71E22" d="M329.73,35.13l-7.812,20.916h-3.164l7.784-20.916H329.73z"/>
	<path fill="#BCBEC0" d="M341.154,35.606c3.042,0.075,5.334,0.929,6.873,2.562c1.541,1.634,2.311,4.112,2.311,7.434
		c0,3.323-0.77,5.801-2.311,7.434c-1.539,1.634-3.831,2.488-6.873,2.562h-6.916V35.606H341.154z M340.201,53.974
		c1.438,0,2.674-0.154,3.711-0.462c1.035-0.308,1.89-0.798,2.562-1.47c0.672-0.672,1.167-1.54,1.483-2.604
		c0.318-1.064,0.477-2.342,0.477-3.836c0-1.493-0.158-2.772-0.477-3.836c-0.316-1.064-0.812-1.932-1.483-2.604
		s-1.526-1.162-2.562-1.47c-1.037-0.308-2.273-0.462-3.711-0.462h-4.06v16.744H340.201z"/>
	<path fill="#BCBEC0" d="M357.184,50.824c0.177,0.682,0.461,1.293,0.854,1.834c0.393,0.542,0.887,0.99,1.484,1.344
		c0.597,0.355,1.316,0.532,2.156,0.532c1.287,0,2.295-0.336,3.023-1.008c0.729-0.672,1.232-1.568,1.512-2.688h1.764
		c-0.373,1.643-1.059,2.912-2.058,3.808s-2.413,1.344-4.241,1.344c-1.139,0-2.124-0.201-2.955-0.602
		c-0.83-0.401-1.508-0.952-2.029-1.652c-0.523-0.7-0.91-1.512-1.162-2.436c-0.252-0.924-0.378-1.899-0.378-2.926
		c0-0.952,0.126-1.885,0.378-2.8s0.639-1.731,1.162-2.45c0.521-0.718,1.199-1.297,2.029-1.736c0.831-0.438,1.816-0.658,2.955-0.658
		c1.156,0,2.146,0.234,2.967,0.7c0.822,0.467,1.489,1.078,2.002,1.834c0.514,0.756,0.883,1.624,1.106,2.604s0.317,1.974,0.28,2.982
		h-11.116C356.917,49.485,357.006,50.143,357.184,50.824z M365.919,45.434c-0.214-0.616-0.518-1.162-0.909-1.638
		c-0.393-0.476-0.869-0.858-1.429-1.148c-0.56-0.289-1.194-0.434-1.903-0.434c-0.729,0-1.373,0.145-1.933,0.434
		c-0.56,0.29-1.036,0.672-1.428,1.148c-0.392,0.476-0.705,1.026-0.938,1.652s-0.387,1.265-0.462,1.918h9.353
		C366.25,46.694,366.134,46.05,365.919,45.434z"/>
	<path fill="#BCBEC0" d="M373.549,41.15l4.536,12.684h0.056l4.48-12.684h1.82l-5.404,14.448h-1.876L371.59,41.15H373.549z"/>
	<path fill="#BCBEC0" d="M390.279,50.824c0.177,0.682,0.461,1.293,0.854,1.834c0.393,0.542,0.887,0.99,1.484,1.344
		c0.597,0.355,1.316,0.532,2.156,0.532c1.287,0,2.295-0.336,3.023-1.008c0.729-0.672,1.232-1.568,1.512-2.688h1.764
		c-0.373,1.643-1.059,2.912-2.058,3.808s-2.413,1.344-4.241,1.344c-1.139,0-2.124-0.201-2.955-0.602
		c-0.83-0.401-1.508-0.952-2.029-1.652c-0.523-0.7-0.91-1.512-1.162-2.436c-0.252-0.924-0.378-1.899-0.378-2.926
		c0-0.952,0.126-1.885,0.378-2.8s0.639-1.731,1.162-2.45c0.521-0.718,1.199-1.297,2.029-1.736c0.831-0.438,1.816-0.658,2.955-0.658
		c1.156,0,2.146,0.234,2.967,0.7c0.822,0.467,1.489,1.078,2.002,1.834c0.514,0.756,0.883,1.624,1.106,2.604s0.317,1.974,0.28,2.982
		h-11.116C390.013,49.485,390.102,50.143,390.279,50.824z M399.015,45.434c-0.214-0.616-0.518-1.162-0.909-1.638
		c-0.393-0.476-0.869-0.858-1.429-1.148c-0.56-0.289-1.194-0.434-1.903-0.434c-0.729,0-1.373,0.145-1.933,0.434
		c-0.56,0.29-1.036,0.672-1.428,1.148c-0.392,0.476-0.705,1.026-0.938,1.652s-0.387,1.265-0.462,1.918h9.353
		C399.346,46.694,399.229,46.05,399.015,45.434z"/>
	<path fill="#BCBEC0" d="M408.102,35.606v19.992h-1.765V35.606H408.102z"/>
	<path fill="#BCBEC0" d="M423.318,41.346c0.85,0.411,1.562,0.961,2.143,1.652c0.578,0.691,1.017,1.498,1.315,2.422
		c0.298,0.924,0.448,1.909,0.448,2.954c0,1.046-0.15,2.03-0.448,2.954c-0.299,0.924-0.737,1.731-1.315,2.422
		c-0.58,0.691-1.293,1.237-2.143,1.638s-1.824,0.602-2.926,0.602s-2.077-0.201-2.926-0.602c-0.85-0.401-1.564-0.947-2.143-1.638
		c-0.578-0.69-1.018-1.498-1.316-2.422s-0.447-1.908-0.447-2.954c0-1.045,0.148-2.03,0.447-2.954
		c0.299-0.924,0.738-1.731,1.316-2.422c0.578-0.69,1.293-1.241,2.143-1.652c0.849-0.411,1.824-0.616,2.926-0.616
		S422.469,40.936,423.318,41.346z M418.18,42.746c-0.635,0.355-1.161,0.822-1.581,1.4c-0.421,0.579-0.737,1.237-0.952,1.974
		c-0.215,0.738-0.322,1.489-0.322,2.254c0,0.766,0.107,1.517,0.322,2.254c0.215,0.738,0.531,1.396,0.952,1.974
		c0.42,0.579,0.946,1.046,1.581,1.4c0.635,0.355,1.373,0.532,2.213,0.532s1.577-0.177,2.212-0.532
		c0.634-0.354,1.162-0.821,1.582-1.4c0.42-0.578,0.737-1.236,0.952-1.974c0.214-0.737,0.322-1.488,0.322-2.254
		c0-0.765-0.108-1.516-0.322-2.254c-0.215-0.737-0.532-1.395-0.952-1.974c-0.42-0.578-0.948-1.045-1.582-1.4
		c-0.635-0.354-1.372-0.532-2.212-0.532S418.814,42.392,418.18,42.746z"/>
	<path fill="#BCBEC0" d="M434.28,41.15v2.744h0.056c0.41-1.008,1.078-1.787,2.002-2.338c0.924-0.55,1.975-0.826,3.15-0.826
		c1.102,0,2.058,0.206,2.869,0.616c0.812,0.411,1.489,0.966,2.031,1.666c0.541,0.7,0.941,1.512,1.203,2.436
		c0.262,0.924,0.393,1.899,0.393,2.926c0,1.027-0.131,2.002-0.393,2.926c-0.262,0.924-0.662,1.736-1.203,2.436
		c-0.542,0.7-1.219,1.25-2.031,1.652c-0.812,0.401-1.768,0.602-2.869,0.602c-0.523,0-1.046-0.066-1.568-0.196
		s-1.008-0.326-1.456-0.588c-0.448-0.261-0.845-0.588-1.19-0.98s-0.611-0.849-0.797-1.372h-0.057v8.064h-1.764V41.15H434.28z
		 M443.954,46.148c-0.178-0.737-0.458-1.395-0.84-1.974c-0.383-0.579-0.873-1.05-1.47-1.414c-0.598-0.364-1.316-0.546-2.156-0.546
		c-0.971,0-1.783,0.168-2.436,0.504c-0.654,0.336-1.177,0.784-1.568,1.344c-0.393,0.56-0.668,1.214-0.826,1.96
		c-0.159,0.747-0.238,1.531-0.238,2.352c0,0.747,0.088,1.489,0.266,2.226c0.178,0.738,0.467,1.396,0.869,1.974
		c0.4,0.579,0.924,1.05,1.567,1.414c0.644,0.364,1.433,0.546,2.366,0.546c0.84,0,1.559-0.182,2.156-0.546
		c0.597-0.364,1.087-0.835,1.47-1.414c0.382-0.579,0.662-1.236,0.84-1.974c0.177-0.737,0.267-1.479,0.267-2.226
		C444.221,47.628,444.131,46.886,443.954,46.148z"/>
	<path fill="#BCBEC0" d="M452.83,50.824c0.178,0.682,0.462,1.293,0.854,1.834c0.393,0.542,0.887,0.99,1.484,1.344
		c0.598,0.355,1.316,0.532,2.156,0.532c1.288,0,2.296-0.336,3.023-1.008c0.729-0.672,1.232-1.568,1.513-2.688h1.764
		c-0.374,1.643-1.06,2.912-2.058,3.808c-0.999,0.896-2.413,1.344-4.242,1.344c-1.139,0-2.123-0.201-2.954-0.602
		s-1.508-0.952-2.03-1.652c-0.522-0.7-0.91-1.512-1.162-2.436c-0.252-0.924-0.377-1.899-0.377-2.926c0-0.952,0.125-1.885,0.377-2.8
		s0.64-1.731,1.162-2.45c0.522-0.718,1.199-1.297,2.03-1.736c0.831-0.438,1.815-0.658,2.954-0.658c1.157,0,2.146,0.234,2.968,0.7
		c0.821,0.467,1.489,1.078,2.002,1.834s0.882,1.624,1.106,2.604c0.224,0.98,0.316,1.974,0.279,2.982h-11.115
		C452.564,49.485,452.652,50.143,452.83,50.824z M461.566,45.434c-0.215-0.616-0.518-1.162-0.91-1.638
		c-0.393-0.476-0.868-0.858-1.428-1.148c-0.561-0.289-1.195-0.434-1.904-0.434c-0.729,0-1.372,0.145-1.932,0.434
		c-0.561,0.29-1.037,0.672-1.428,1.148c-0.393,0.476-0.705,1.026-0.938,1.652s-0.388,1.265-0.462,1.918h9.352
		C461.897,46.694,461.781,46.05,461.566,45.434z"/>
	<path fill="#BCBEC0" d="M470.484,41.15v3.388h0.055c0.449-1.176,1.145-2.081,2.086-2.716c0.943-0.634,2.068-0.924,3.375-0.868
		v1.764c-0.803-0.037-1.531,0.07-2.184,0.322c-0.654,0.252-1.219,0.612-1.695,1.078c-0.476,0.467-0.844,1.022-1.105,1.666
		s-0.393,1.349-0.393,2.114v7.7h-1.764V41.15H470.484z"/>
</g>
</svg>
